<?xml version="1.0" encoding="UTF-8"?>
<svg width="15px" height="15px" viewBox="0 0 15 15" version="1.1" xmlns="http://www.w3.org/2000/svg" xmlns:xlink="http://www.w3.org/1999/xlink">
    <!-- Generator: Sketch 60.1 (88133) - https://sketch.com -->
    <title>icon location grey</title>
    <desc>Created with Sketch.</desc>
    <g id="🖥-Desktop-Templates" stroke="none" stroke-width="1" fill="none" fill-rule="evenodd">
        <g id="LiftEd-Bx-Frequency-Graph---Sidebar-Exp" transform="translate(-330.000000, -284.000000)" stroke="#A3A3A3">
            <g id="Graphic" transform="translate(41.000000, 92.000000)">
                <g id="Chart">
                    <g id="icon-location-grey" transform="translate(290.000000, 193.000000)">
                        <path d="M6.5,0 C8.98528137,0 11,1.72370371 11,3.85 C11,4.39167544 10.869249,4.90722347 10.6332761,5.37480243 C10.411359,5.8145299 10.0963819,6.21183269 9.7095784,6.5485443 C9.61547049,6.63046503 9.51711094,6.70879917 9.41480556,6.7832851 L6.5,11 L3.58938112,6.78632957 C3.06769392,6.40743605 2.64828678,5.92859509 2.37157974,5.38438826 C2.13254542,4.91427337 2,4.39537967 2,3.85 C2,1.72370371 4.01471863,0 6.5,0 Z" id="Combined-Shape" stroke-width="1.08000004" stroke-linejoin="round"></path>
                        <path d="M4.49170225,11 C1.88473573,11.1334085 0,11.5195342 0,11.9750717 C0,12.541124 2.91014913,13 6.5,13 C10.0898509,13 13,12.541124 13,11.9750717 C13,11.5228828 11.142872,11.1390891 8.56567205,11.002983" id="Path" stroke-linecap="round"></path>
                        <path d="M6.5,5 C7.32842712,5 8,4.32842712 8,3.5 C8,2.67157288 7.32842712,2 6.5,2 C5.67157288,2 5,2.67157288 5,3.5 C5,4.32842712 5.67157288,5 6.5,5 Z" id="Oval-Copy-3" stroke-width="1.08000004"></path>
                    </g>
                </g>
            </g>
        </g>
    </g>
</svg>